<?xml version="1.0" encoding="UTF-8"?>
<svg id="_レイヤー_2" data-name="レイヤー 2" xmlns="http://www.w3.org/2000/svg" version="1.1" viewBox="0 0 489.51 385.09">
  <defs>
    <style>
      .cls-1, .cls-2 {
        fill: #231916;
      }

      .cls-3 {
        fill: #e60013;
      }

      .cls-2, .cls-4 {
        stroke-width: 0px;
      }

      .cls-4 {
        fill: #fff;
      }

      .cls-5 {
        font-family: KozGoPro-Regular, 'KozGoPro Regular-83pv-RKSJ-H';
        font-size: 33.47px;
      }
    </style>
  </defs>
  <text class="cls-5" transform="translate(54.54 -45.22)"><tspan class="cls-3" x="0" y="0">Wine 4U Logo Design A </tspan><tspan class="cls-1" x="360.75" y="0">Outlined</tspan></text>
  <text/>
  <path class="cls-2" d="M249.47,311.01c-57.91,0-105.02-43.18-105.02-96.25s47.12-95.98,105.02-96.25c68.22-.33,105.02,43.18,105.02,96.25s-47.11,96.25-105.02,96.25ZM249.53,120.5c-56.54,0-102.54,41.69-102.54,92.92s46,92.93,102.54,92.93,102.54-41.69,102.54-92.93-46-92.92-102.54-92.92Z"/>
  <path class="cls-2" d="M349.45,196.12c0-7.3-.79-14.41-2.28-21.27.46-3.74.7-7.53.7-11.38,0-55.49-48.66-100.64-108.48-100.64-39.26,0-73.71,19.44-92.76,48.49-31.08,18.52-51.97,52.66-51.97,91.65,0,54.05,40.16,98.81,91.94,105.49,14.26,6.2,30.04,9.65,46.63,9.65,61.24,0,111.47-46.96,114.92-105.96.84-5.22,1.29-10.58,1.29-16.04ZM216.06,102c-38.68,13.77-66.38,50.71-66.38,94.12,0,10.75,1.71,21.1,4.85,30.81-11.83-17.27-19.21-38.5-20.95-61.7-.05-.73-.1-1.47-.13-2.2,15.29-31.96,45.99-55.42,82.61-61.02ZM131.39,173.34c2.02,20.74,10.39,39.8,23.62,55.04,10.31,30.24,34.73,53.95,65.4,63.3-50.81-7.61-89.91-51.61-89.91-104.6,0-4.66.3-9.24.89-13.74ZM263.85,97.26c-9.75-2.63-20.01-4.04-30.61-4.04-9.87,0-19.45,1.22-28.6,3.51-1.53-.07-3.06-.11-4.61-.11-7.69,0-15.18.84-22.4,2.43,16.75-11.19,36.85-17.73,58.45-17.73,38.14,0,71.62,20.37,90.18,50.81-15.44-18.48-37.43-31.3-62.41-34.87ZM199.14,98.25c-21.26,6.45-39.9,18.79-53.92,35.03,7.26-12.26,16.92-22.93,28.33-31.36,8.18-2.24,16.75-3.5,25.59-3.67ZM137.56,143.21c-1.24,1.81-2.43,3.66-3.57,5.55,1.58-12.67,6.05-24.6,12.78-35.27,6.1-3.73,12.62-6.84,19.46-9.27-12.14,10.7-21.99,24.02-28.67,38.99ZM237.22,298.15c1.26,0,2.52-.03,3.77-.07-12.28,5.08-25.74,7.89-39.85,7.89-7.25,0-14.34-.74-21.18-2.15-33.91-18.47-56.93-54.04-56.93-94.82,0-12.06,2.02-23.67,5.73-34.52-.6,4.64-.91,9.35-.91,14.12,0,60.41,49.06,109.55,109.36,109.55ZM237.87,65.04c58.07,0,105.37,43.88,105.98,98.03-.22-.64-.45-1.28-.69-1.92-12.09-47.71-54.81-84.24-105.71-84.24-25.38,0-48.81,9.09-67.44,24.11-7.3,2.19-14.27,5.17-20.82,8.82,18.73-26.84,52.03-44.81,88.68-44.81ZM96.85,202.09c0-36.42,18.92-68.51,47.48-87.06-6.85,11.52-11.34,24.41-12.85,38.11-8.52,15.69-13.35,33.56-13.35,52.52,0,41.31,22.93,77.48,57,97.03-44.96-11.54-78.27-52.26-78.27-100.6ZM233.02,317.27c-15.03,0-29.36-2.99-42.43-8.38,3.11.28,6.26.43,9.44.43,17.3,0,33.63-4.23,48.05-11.72,4.95-.49,9.8-1.32,14.54-2.45,31.97-4.18,59.19-23.47,74.24-50.48-15.01,42.23-55.89,72.6-103.84,72.6Z"/>
  <path class="cls-2" d="M280.99,56.78c0,18.44-14.95,33.39-33.39,33.39s-33.39-14.95-33.39-33.39,14.95-33.39,33.39-33.39,33.39,14.95,33.39,33.39Z"/>
  <path class="cls-2" d="M326.38,73.77c0,11.47-9.3,20.77-20.77,20.77s-20.78-9.3-20.78-20.77,9.3-20.78,20.78-20.78,20.77,9.3,20.77,20.78Z"/>
  <path class="cls-2" d="M358.46,137.5c0,3.3-2.68,5.97-5.97,5.97s-5.97-2.67-5.97-5.97,2.67-5.97,5.97-5.97,5.97,2.67,5.97,5.97Z"/>
  <path class="cls-2" d="M347.65,107.89c0,6.65-5.39,12.04-12.04,12.04s-12.04-5.39-12.04-12.04,5.39-12.04,12.04-12.04,12.04,5.39,12.04,12.04Z"/>
  <path class="cls-2" d="M386.34,178.11h-23.27c.03,2.7.57,5.08,1.63,7.15,1.06,2.06,2.47,3.62,4.23,4.66s3.7,1.57,5.82,1.57c1.42,0,2.72-.17,3.9-.5,1.17-.33,2.32-.86,3.42-1.57,1.1-.71,2.12-1.47,3.05-2.29.93-.81,2.14-1.92,3.62-3.31.61-.52,1.48-.79,2.61-.79,1.22,0,2.21.34,2.96,1,.76.67,1.13,1.61,1.13,2.83,0,1.07-.42,2.33-1.26,3.77-.84,1.44-2.11,2.82-3.81,4.14-1.7,1.32-3.83,2.42-6.41,3.29-2.57.87-5.53,1.31-8.87,1.31-7.64,0-13.58-2.18-17.82-6.54-4.24-4.36-6.36-10.27-6.36-17.73,0-3.52.52-6.78,1.57-9.78,1.05-3.01,2.57-5.58,4.57-7.73,2-2.15,4.47-3.8,7.41-4.94,2.93-1.15,6.19-1.72,9.76-1.72,4.65,0,8.63.98,11.96,2.94,3.33,1.96,5.82,4.5,7.47,7.6,1.66,3.11,2.48,6.27,2.48,9.5,0,2.99-.86,4.93-2.57,5.82-1.71.89-4.12,1.33-7.23,1.33ZM363.07,171.36h21.57c-.29-4.07-1.39-7.11-3.29-9.13-1.9-2.02-4.41-3.03-7.52-3.03s-5.4,1.02-7.3,3.07c-1.9,2.05-3.06,5.08-3.46,9.09Z"/>
  <path class="cls-4" d="M262.62,132.14c-1.29-1.22-2.85-1.83-4.69-1.83s-3.25.48-4.21,1.43c-.97.95-1.65,2.03-2.05,3.24-.4,1.21-.82,2.87-1.26,5l-9.14,40.76-10.33-38.14c-.86-3.14-1.54-5.4-2.05-6.76-.51-1.36-1.42-2.62-2.74-3.78-1.32-1.16-3.17-1.74-5.55-1.74s-4.21.56-5.57,1.67c-1.37,1.11-2.35,2.43-2.95,3.95-.6,1.52-1.29,3.75-2.05,6.67l-10.24,38.14-9.14-40.76c-.67-3.14-1.44-5.54-2.33-7.19-.89-1.65-2.62-2.48-5.19-2.48-1.87,0-3.44.62-4.71,1.86-1.27,1.24-1.9,2.76-1.9,4.57,0,1.43.35,3.51,1.05,6.24l11.62,47c.35,1.4.75,2.91,1.19,4.55.44,1.63,1.02,3.05,1.71,4.24.7,1.19,1.61,2.11,2.74,2.76,1.13.65,2.56.98,4.31.98,2.16,0,3.89-.55,5.19-1.64,1.3-1.1,2.21-2.33,2.74-3.72.52-1.38,1.23-3.66,2.12-6.83l11.43-41.85,11.29,41.85c.92,3.27,1.63,5.58,2.14,6.93.51,1.35,1.41,2.56,2.71,3.64,1.3,1.08,3.03,1.62,5.19,1.62,2.29,0,4.06-.56,5.31-1.67,1.25-1.11,2.14-2.4,2.67-3.88.52-1.48,1.18-3.8,1.98-6.98l11.62-47c.7-2.86,1.05-4.94,1.05-6.24,0-1.84-.64-3.37-1.93-4.6Z"/>
  <line class="cls-4" x1="230.93" y1="142.59" x2="241.26" y2="180.73"/>
  <g>
    <path class="cls-4" d="M278.46,145.48c1.6,0,2.98-.51,4.14-1.55,1.16-1.03,1.74-2.46,1.74-4.29s-.6-3.33-1.79-4.31c-1.19-.99-2.56-1.48-4.09-1.48s-3,.54-4.21,1.63c-1.21,1.09-1.81,2.48-1.81,4.16,0,1.86.59,3.3,1.76,4.31,1.18,1.02,2.59,1.52,4.25,1.52Z"/>
    <path class="cls-4" d="M278.33,151.01c-1.74,0-3.16.6-4.25,1.79-1.09,1.19-1.63,2.96-1.63,5.32v34.03c0,2.32.54,4.11,1.63,5.36,1.09,1.25,2.5,1.87,4.25,1.87s3.18-.61,4.31-1.83c1.13-1.22,1.7-3.02,1.7-5.4v-34.38c0-2.12-.57-3.78-1.7-4.97-1.13-1.19-2.57-1.79-4.31-1.79Z"/>
  </g>
  <path class="cls-4" d="M338.33,163.56c-.23-1.68-.74-3.25-1.53-4.71-1.22-2.5-3.06-4.43-5.53-5.79-2.47-1.37-5.27-2.05-8.41-2.05s-6.08.65-8.56,1.94c-2.48,1.29-4.77,3.32-6.86,6.08v-1.44c0-1.42-.25-2.63-.76-3.62-.51-.99-1.18-1.73-2.03-2.22-.84-.49-1.79-.74-2.83-.74-1.71,0-3.06.56-4.05,1.68-.99,1.12-1.48,2.81-1.48,5.08v34.38c0,2.32.55,4.11,1.66,5.36,1.1,1.25,2.51,1.87,4.23,1.87s3.22-.6,4.34-1.81c1.12-1.21,1.68-3.01,1.68-5.43v-14.9c0-4.85.29-8.16.87-9.93.81-2.21,2.09-3.94,3.83-5.21,1.74-1.26,3.67-1.89,5.79-1.89,3.25,0,5.42,1.04,6.51,3.12,1.09,2.08,1.63,5.08,1.63,9v19.82c0,2.32.55,4.11,1.66,5.36,1.1,1.25,2.54,1.87,4.31,1.87s3.16-.61,4.25-1.83c1.09-1.22,1.64-3.02,1.64-5.4v-22.13c0-2.61-.12-4.76-.35-6.45Z"/>
  <path class="cls-4" d="M239.04,254.69c-1.49-.67-3.46-1.01-5.92-1.01h-2.06v-37.13c0-5.56-2.43-8.35-7.29-8.35-1.5,0-2.79.5-3.86,1.51-1.07,1.01-2.44,2.63-4.1,4.87l-25.43,34.01c-.7.93-1.29,1.71-1.77,2.35-.48.64-.94,1.3-1.39,1.99-.45.69-.78,1.34-1.01,1.97-.22.62-.33,1.24-.33,1.85,0,2.37.76,4.24,2.28,5.61,1.52,1.38,3.8,2.06,6.83,2.06h24.08v8.92c0,2.4.55,4.21,1.65,5.45,1.1,1.23,2.55,1.85,4.34,1.85s3.28-.6,4.37-1.8c1.09-1.2,1.63-3.03,1.63-5.49v-8.92h2.93c2.43,0,4.25-.42,5.47-1.27,1.21-.85,1.82-2.2,1.82-4.05,0-2.27-.74-3.74-2.23-4.41ZM219.06,253.68h-20.63l20.63-27.87v27.87Z"/>
  <path class="cls-4" d="M305.01,211.59c-1.27-1.36-2.92-2.04-4.97-2.04s-3.68.68-4.9,2.04c-1.22,1.36-1.83,3.43-1.83,6.2v33.28c0,5.74-1.1,10.02-3.3,12.84-2.2,2.82-5.95,4.23-11.26,4.23-3.85,0-6.84-.69-8.97-2.08-2.14-1.39-3.62-3.34-4.46-5.86-.84-2.52-1.26-5.65-1.26-9.41v-33.01c0-2.75-.62-4.81-1.85-6.18-1.24-1.37-2.91-2.06-5.01-2.06s-3.64.69-4.88,2.06c-1.24,1.37-1.85,3.43-1.85,6.18v32.28c0,5.07.55,9.42,1.65,13.07,1.1,3.65,2.82,6.64,5.17,8.97,2.35,2.34,5.39,4.06,9.11,5.17,3.72,1.11,8.17,1.67,13.32,1.67,4.34,0,8.12-.52,11.36-1.56,3.23-1.04,6.07-2.69,8.52-4.95,2.84-2.65,4.77-5.74,5.79-9.25,1.02-3.51,1.53-7.89,1.53-13.14v-32.28c0-2.78-.63-4.85-1.9-6.2Z"/>
</svg>